<svg xmlns="http://www.w3.org/2000/svg" width="597.04" height="448pt" style="isolation:isolate" viewBox="527 364 447.78 448">
  <g fill-rule="evenodd">
    <path fill="#3B82F6" d="M527 364h447.78v448H527V364Z"/>
    <path fill="#FFF" d="M703.667 702.811h-43.186l65.305-118.322-61.092-111.299h45.293l25.279 50.909q4.564 7.725 8.426 16.151 3.862 8.427 9.129 18.96h1.405q4.213-10.533 7.899-18.96 3.687-8.426 7.549-16.151L793.9 473.19h43.186l-61.092 113.055 65.305 116.566h-45.292l-28.088-54.07q-4.565-9.129-8.954-18.082-4.388-8.953-9.655-19.486h-1.404q-4.214 10.533-8.427 19.486-4.213 8.953-8.426 18.082l-27.386 54.07Z"/>
  </g>
</svg>
